HIERARCHY
ROOT SimulationBone
{
	OFFSET 0.000000 0.000000 0.000000
	CHANNELS 6 Xposition Yposition Zposition Zrotation Yrotation Xrotation 
	JOINT Hips
	{
		OFFSET 0.000000 0.000000 0.000000
		CHANNELS 6 Xposition Yposition Zposition Zrotation Yrotation Xrotation 
		JOINT RightUpLeg
		{
			OFFSET 0.103457 1.857831 10.548505
			CHANNELS 3 Zrotation Yrotation Xrotation
			JOINT RightLeg
			{
				OFFSET 43.500000 -0.000038 -0.000004
				CHANNELS 3 Zrotation Yrotation Xrotation
				JOINT RightFoot
				{
					OFFSET 42.372208 0.000027 -0.000004
					CHANNELS 3 Zrotation Yrotation Xrotation
					JOINT RightToe
					{
						OFFSET 17.300005 0.000002 0.000002
						CHANNELS 3 Zrotation Yrotation Xrotation
						End Site
						{
							OFFSET 0.000000 0.000000 0.000000
						}
					}
				}
			}
		}
		JOINT LeftUpLeg
		{
			OFFSET 0.103462 1.857825 -10.548504
			CHANNELS 3 Zrotation Yrotation Xrotation
			JOINT LeftLeg
			{
				OFFSET 43.500042 -0.000027 0.000011
				CHANNELS 3 Zrotation Yrotation Xrotation
				JOINT LeftFoot
				{
					OFFSET 42.372265 -0.000015 0.000012
					CHANNELS 3 Zrotation Yrotation Xrotation
					JOINT LeftToe
					{
						OFFSET 17.299988 -0.000007 0.000010
						CHANNELS 3 Zrotation Yrotation Xrotation
						End Site
						{
							OFFSET 0.000000 0.000000 0.000000
						}
					}
				}
			}
		}
		JOINT Spine
		{
			OFFSET 6.901970 -2.603737 0.000000
			CHANNELS 3 Zrotation Yrotation Xrotation
			JOINT Spine1
			{
				OFFSET 12.588099 0.000007 0.000001
				CHANNELS 3 Zrotation Yrotation Xrotation
				JOINT Spine2
				{
					OFFSET 12.343201 0.000001 0.000000
					CHANNELS 3 Zrotation Yrotation Xrotation
					JOINT Neck
					{
						OFFSET 25.832897 -0.000008 -0.000001
						CHANNELS 3 Zrotation Yrotation Xrotation
						JOINT Head
						{
							OFFSET 11.766607 0.000021 0.000000
							CHANNELS 3 Zrotation Yrotation Xrotation
							End Site
							{
								OFFSET 0.000000 0.000000 0.000000
							}
						}
					}
					JOINT RightShoulder
					{
						OFFSET 19.745903 -1.480373 6.000104
						CHANNELS 3 Zrotation Yrotation Xrotation
						JOINT RightArm
						{
							OFFSET 11.284125 -0.000018 -0.000023
							CHANNELS 3 Zrotation Yrotation Xrotation
							JOINT RightForeArm
							{
								OFFSET 33.000050 0.000010 0.000034
								CHANNELS 3 Zrotation Yrotation Xrotation
								JOINT RightHand
								{
									OFFSET 25.200010 0.000001 -0.000001
									CHANNELS 3 Zrotation Yrotation Xrotation
									End Site
									{
										OFFSET 0.000000 0.000000 0.000000
									}
								}
							}
						}
					}
					JOINT LeftShoulder
					{
						OFFSET 19.746090 -1.480381 -6.000076
						CHANNELS 3 Zrotation Yrotation Xrotation
						JOINT LeftArm
						{
							OFFSET 11.284138 -0.000019 -0.000020
							CHANNELS 3 Zrotation Yrotation Xrotation
							JOINT LeftForeArm
							{
								OFFSET 33.000092 0.000024 0.000022
								CHANNELS 3 Zrotation Yrotation Xrotation
								JOINT LeftHand
								{
									OFFSET 25.199774 0.000133 0.000423
									CHANNELS 3 Zrotation Yrotation Xrotation
									End Site
									{
										OFFSET 0.000000 0.000000 0.000000
									}
								}
							}
						}
					}
				}
			}
		}
	}
}
MOTION
Frames: 15
Frame Time: 0.016667
60.145545 0.000000 -132.207246 0.000000 -60.953798 0.000000 -5.113630 89.540902 -1.424433 86.837748 -1.548298 -179.025475 149.886293 -5.589038 -170.400588 -31.918012 -4.423949 -13.906541 75.934518 6.417149 -13.822929 21.454559 0.003103 0.000016 -179.581024 7.547253 -170.267016 -20.380586 4.164047 6.261883 94.399990 -3.577018 6.671860 21.454552 -0.003095 -0.000000 9.376995 0.782736 -0.863451 8.730167 1.628340 -1.665564 8.412084 1.618126 -1.675371 9.062267 1.348857 -6.829670 0.078193 2.809611 -7.189933 127.824539 -71.988503 52.073546 -9.337835 56.086617 19.625751 -55.543201 -15.749265 2.018772 4.126483 -9.769949 35.022739 172.433680 74.439087 -6.386487 -20.747797 -49.221164 -24.929005 -33.072636 14.235336 -1.243122 13.197734 14.848375 -1.233180 
60.816632 0.000000 -131.489671 0.000000 -61.080461 0.000000 -5.320052 89.429413 -1.435296 86.445102 -1.575341 -178.712198 149.504029 -5.257703 -169.102643 -28.695837 -4.539888 -14.154180 75.617146 6.626688 -13.615530 21.454560 0.003099 0.000016 -179.162733 7.713894 -170.213765 -19.881892 4.214620 6.352758 94.611793 -3.618569 6.963360 21.454551 -0.003089 0.000000 9.396072 0.779066 -0.826093 8.768887 1.618469 -1.590941 8.450791 1.608700 -1.600690 9.040975 1.524876 -6.512832 0.134151 2.551238 -6.781502 127.317974 -72.008003 52.584695 -9.424021 56.313986 19.302377 -56.225047 -15.678728 2.038524 3.982135 -9.724077 35.265912 172.392608 74.480388 -6.427198 -20.789191 -49.049958 -24.970228 -32.298369 14.093741 -1.217572 13.290592 14.556595 -1.174102 
61.534339 0.000000 -130.740887 0.000000 -61.236116 0.000000 -5.509129 89.305436 -1.433137 86.104436 -1.603914 -178.513028 149.269889 -5.105308 -167.958907 -25.492467 -4.601667 -14.222440 75.494231 6.728521 -13.408880 21.454557 0.003102 0.000017 -178.673446 7.892472 -170.064930 -19.381265 4.188611 6.315884 94.821176 -3.570585 7.282183 21.454550 -0.003095 0.000001 9.428345 0.756597 -0.763558 8.834583 1.569283 -1.467271 8.516470 1.560255 -1.476725 8.990414 1.633560 -6.184206 0.130171 2.411981 -6.399777 127.059889 -72.062757 52.841018 -9.521589 56.539057 18.943242 -56.725225 -15.588801 2.050627 3.825084 -9.809740 35.478365 172.223602 74.531883 -6.598633 -20.777330 -48.932152 -25.036210 -31.664068 13.993757 -1.198017 13.313799 14.288504 -1.402236 
62.299724 0.000000 -129.963907 0.000000 -61.420981 0.000000 -5.661848 89.147003 -1.425865 85.836731 -1.635077 -178.399974 149.158695 -5.108596 -167.136860 -22.434349 -4.587139 -14.028111 75.520055 6.596338 -13.416693 21.454555 0.003109 0.000018 -178.119176 8.083692 -169.929465 -18.960791 4.096811 6.225710 95.085870 -3.483265 7.662974 21.454550 -0.003101 0.000001 9.472468 0.713433 -0.684303 8.924352 1.477531 -1.311660 8.606227 1.469441 -1.320564 8.973474 1.659661 -5.851607 0.073721 2.437448 -6.066238 126.966875 -72.087158 52.932966 -9.480000 56.728206 18.701364 -57.108146 -15.544071 2.061254 3.641670 -10.003951 35.602620 171.822902 74.592670 -7.006998 -20.688435 -48.908542 -25.138080 -31.213735 13.944853 -1.185754 13.311714 14.063994 -1.894106 
63.112710 0.000000 -129.160959 0.000000 -61.636603 0.000000 -5.764549 88.936229 -1.421648 85.650371 -1.667083 -178.319343 149.124310 -5.206081 -166.698204 -19.664281 -4.512725 -13.577363 75.597664 6.183219 -13.783468 21.454557 0.003113 0.000018 -177.504120 8.286077 -169.921277 -18.675986 3.961747 6.175122 95.448301 -3.420026 8.134902 21.454549 -0.003093 0.000000 9.524460 0.650671 -0.602027 9.029920 1.346342 -1.151518 8.711795 1.339224 -1.159636 9.037883 1.624249 -5.520104 -0.018120 2.621517 -5.781633 126.890282 -72.030965 53.015571 -9.160785 56.874575 18.706623 -57.440818 -15.597792 2.076770 3.432136 -10.254896 35.580375 171.181444 74.663786 -7.661379 -20.540250 -49.015117 -25.267084 -30.952331 13.950244 -1.180912 13.310905 13.866211 -2.597185 
63.972720 0.000000 -128.334415 0.000000 -61.884337 0.000000 -5.839407 88.693550 -1.413959 85.509566 -1.713935 -178.208592 149.085038 -5.253205 -166.399350 -17.340821 -4.431613 -13.205734 75.610234 5.783778 -14.292913 21.454560 0.003111 0.000017 -176.830483 8.511199 -170.024760 -18.455624 3.815824 6.193337 95.853173 -3.402731 8.671763 21.454550 -0.003085 -0.000001 9.577952 0.571929 -0.532111 9.138280 1.184086 -1.017434 8.820162 1.177787 -1.024580 9.108483 1.657951 -5.177435 -0.100714 2.767309 -5.464460 126.729089 -72.007265 53.180881 -8.757087 57.021528 18.813521 -57.660989 -15.660292 2.089245 3.230024 -10.523964 35.373661 170.544399 74.733795 -8.311100 -20.432689 -49.207171 -25.369879 -30.819629 13.971828 -1.179634 13.300611 13.638502 -3.273102 
64.876874 0.000000 -127.487454 0.000000 -62.164341 0.000000 -5.912717 88.445979 -1.397002 85.371661 -1.795349 -178.029941 148.960623 -5.122727 -166.070371 -15.641757 -4.362564 -13.193695 75.448891 5.657981 -14.693880 21.454560 0.003102 0.000014 -176.108958 8.781821 -170.176104 -18.216975 3.682314 6.268309 96.231552 -3.423727 9.242529 21.454550 -0.003091 -0.000001 9.625505 0.479534 -0.484987 9.234467 0.996243 -0.930180 8.916357 0.990480 -0.936197 9.117137 1.866481 -4.811581 -0.137169 2.695080 -5.041969 126.456179 -72.117967 53.447079 -8.475990 57.203655 18.870707 -57.678313 -15.646245 2.089040 3.047279 -10.791016 34.994815 170.130763 74.801212 -8.732140 -20.451708 -49.435838 -25.402297 -30.756642 13.972681 -1.178419 13.262822 13.333116 -3.694984 
65.821442 0.000000 -126.623310 0.000000 -62.476013 0.000000 -5.998483 88.208519 -1.377858 85.211567 -1.939703 -177.849945 148.708804 -4.844412 -166.141510 -14.797914 -4.262131 -13.256829 75.086263 5.594229 -14.959441 21.454560 0.003098 0.000014 -175.386841 9.154098 -170.248872 -17.957592 3.537376 6.287248 96.559025 -3.404082 9.853344 21.454551 -0.003102 -0.000001 9.657625 0.368013 -0.449678 9.299697 0.770991 -0.868333 8.981599 0.765607 -0.872991 9.140852 2.142364 -4.429839 -0.143157 2.485011 -4.561371 126.309524 -72.258165 53.582804 -8.239012 57.365828 18.988213 -57.420737 -15.630184 2.078431 2.774747 -11.096852 34.639522 169.775511 74.905718 -9.091911 -20.538137 -49.714979 -25.408965 -30.774250 13.962081 -1.178106 13.188901 12.979005 -3.868103 
66.807412 0.000000 -125.743680 0.000000 -62.819758 0.000000 -6.102100 87.988354 -1.360620 85.028304 -2.160693 -177.733853 148.324622 -4.483311 -167.003355 -14.964340 -4.109254 -13.089615 74.432314 5.359217 -15.064737 21.454559 0.003107 0.000018 -174.687076 9.663418 -170.154966 -17.689691 3.360602 6.160436 96.819894 -3.280345 10.511017 21.454550 -0.003105 -0.000001 9.670264 0.234279 -0.412859 9.326008 0.501092 -0.805485 9.007927 0.496088 -0.808510 9.252933 2.339469 -4.043211 -0.129160 2.281605 -4.094549 126.497598 -72.309637 53.387892 -7.927729 57.462882 19.298379 -56.850365 -15.704983 2.062416 2.329202 -11.490750 34.476854 169.289623 75.080556 -9.582392 -20.609085 -50.066241 -25.433769 -30.905765 13.959770 -1.180581 13.081637 12.638845 -3.870473 
67.840662 0.000000 -124.849974 0.000000 -63.196056 0.000000 -6.193912 87.773399 -1.336373 84.900495 -2.404886 -177.643156 147.936378 -4.067904 -168.286955 -15.942193 -3.963946 -12.867639 73.046762 5.105052 -14.776662 21.454560 0.003116 0.000022 -173.904785 10.239703 -170.025634 -17.405972 3.188572 5.991735 96.982545 -3.121640 11.184814 21.454550 -0.003103 -0.000001 9.683397 0.092636 -0.373360 9.353256 0.215177 -0.737991 9.035188 0.210580 -0.739287 9.372731 2.375101 -3.660774 -0.038388 2.225543 -3.691706 126.797705 -72.305034 53.084658 -7.553808 57.582905 19.757522 -56.047838 -15.877466 2.045600 1.859118 -11.996104 34.378527 168.806799 75.299123 -10.067695 -20.637421 -50.479841 -25.423336 -31.204422 13.981120 -1.187907 12.981509 12.432495 -3.839205 
68.927636 0.000000 -123.944654 0.000000 -63.603760 0.000000 -6.249481 87.557972 -1.300315 84.883337 -2.650620 -177.531872 147.667341 -3.576698 -169.503646 -17.438752 -3.901770 -12.824746 70.722051 5.069929 -13.897034 21.454560 0.003112 0.000021 -172.963710 10.849006 -170.013392 -17.103353 3.061480 5.896990 97.014284 -3.003133 11.855570 21.454550 -0.003099 0.000000 9.713195 -0.049879 -0.335468 9.413743 -0.072261 -0.673863 9.095678 -0.076464 -0.673423 9.412400 2.217311 -3.289685 0.164193 2.399252 -3.378928 126.982939 -72.295998 52.898007 -7.154772 57.800859 20.271021 -55.093901 -16.112283 2.028738 1.515647 -12.638421 34.171981 168.489156 75.518036 -10.383847 -20.617784 -50.934253 -25.309070 -31.704464 14.038907 -1.201792 12.920062 12.439657 -3.878101 
70.071101 0.000000 -123.029803 0.000000 -64.040644 0.000000 -6.305477 87.381287 -1.276369 84.855684 -3.065592 -177.418949 147.465969 -2.865398 -170.450526 -19.131635 -3.968952 -12.955709 68.547334 5.362992 -12.567505 21.454560 0.003106 0.000018 -172.019038 11.695102 -170.134043 -16.811659 2.981317 5.845457 96.901935 -2.894684 12.590864 21.454550 -0.003095 0.000001 9.736498 -0.232590 -0.312778 9.461462 -0.438780 -0.643513 9.143383 -0.442786 -0.640862 9.411587 1.968556 -2.928710 0.354536 2.658605 -3.109757 127.244290 -72.254935 52.637154 -6.757895 58.004341 20.700287 -53.951790 -16.290693 1.999504 1.218984 -13.471630 33.816081 168.238295 75.680500 -10.633807 -20.572054 -51.392555 -25.061351 -32.343981 14.140081 -1.221516 12.851390 12.523893 -3.897003 
71.267128 0.000000 -122.107175 0.000000 -64.505256 0.000000 -6.392066 87.269810 -1.292566 84.721045 -3.779861 -177.323133 147.252076 -1.825417 -171.115308 -20.844734 -4.150772 -13.152262 67.669490 5.936765 -11.021737 21.454559 0.003108 0.000017 -171.237572 12.949793 -170.322597 -16.642310 2.926254 5.763787 96.642866 -2.737097 13.457869 21.454549 -0.003090 0.000001 9.738159 -0.488728 -0.312379 9.466583 -0.950212 -0.663691 9.148456 -0.954321 -0.657955 9.436295 1.742408 -2.582479 0.388989 2.849622 -2.842135 127.758684 -72.151111 52.125690 -6.435281 58.067876 20.931295 -52.555442 -16.332679 1.951979 0.899899 -14.530400 33.228193 167.908582 75.745853 -10.968070 -20.526971 -51.847059 -24.637510 -33.036795 14.295305 -1.246134 12.714013 12.566770 -3.788468 
72.508739 0.000000 -121.179129 0.000000 -64.997304 0.000000 -6.456934 87.154137 -1.351516 84.670008 -4.594076 -177.208581 147.003893 -0.600497 -171.955135 -23.022985 -4.222859 -13.144163 68.140432 6.458231 -9.538953 21.454558 0.003112 0.000018 -170.595613 14.420705 -170.336476 -17.001265 2.814279 5.555137 96.252582 -2.462025 14.435072 21.454551 -0.003086 0.000001 9.774162 -0.780922 -0.306721 9.540879 -1.533825 -0.676814 9.222671 -1.537999 -0.667553 9.525632 1.565485 -2.287196 0.210179 3.002079 -2.616429 128.248506 -72.026533 51.640779 -6.416349 57.997545 21.023473 -50.833627 -16.398576 1.900892 0.767776 -15.741096 32.011849 167.446198 75.754388 -11.440094 -20.503226 -52.422435 -23.903148 -33.695621 14.535809 -1.275995 12.460810 12.737306 -3.571594 
73.790201 0.000000 -120.247658 0.000000 -65.516878 0.000000 -6.444651 86.980175 -1.444350 84.900457 -5.294058 -177.076457 146.774436 0.597448 -173.373824 -25.965768 -4.003720 -12.757893 69.639791 6.650422 -8.352511 21.454556 0.003110 0.000018 -170.031294 15.882021 -170.030791 -18.202657 2.579512 5.164972 95.703369 -2.025742 15.460791 21.454554 -0.003086 0.000001 9.897234 -1.066592 -0.259891 9.788869 -2.107279 -0.609168 9.470559 -2.111046 -0.596436 9.673423 1.448791 -2.079290 -0.146870 3.167791 -2.476875 128.426112 -71.924426 51.469988 -6.883494 57.835984 21.013133 -48.781360 -16.643855 1.853069 1.091394 -16.933996 29.823019 166.856107 75.773628 -12.042088 -20.509128 -53.244307 -22.766963 -34.288421 14.878124 -1.311494 12.095464 13.219142 -3.267978 
